<svg xmlns="http://www.w3.org/2000/svg" width="400" height="400" viewBox="0 0 400 400">
  <defs>
    <linearGradient id="bg" x1="0" y1="0" x2="1" y2="1">
      <stop offset="0%" stop-color="#f3f4f6" />
      <stop offset="100%" stop-color="#e5e7eb" />
    </linearGradient>
  </defs>
  <rect width="400" height="400" fill="url(#bg)" />
  <rect x="40" y="40" width="320" height="320" rx="24" ry="24" fill="#ffffff" stroke="#d1d5db" stroke-width="2" />
  <g fill="#9ca3af">
    <path d="M140 210c0-33.1 26.9-60 60-60s60 26.9 60 60-26.9 60-60 60-60-26.9-60-60zm60-42c-23.2 0-42 18.8-42 42s18.8 42 42 42 42-18.8 42-42-18.8-42-42-42z"/>
    <path d="M135 285h130v18H135z"/>
  </g>
  <text x="200" y="315" text-anchor="middle" font-family="Arial, sans-serif" font-size="16" fill="#6b7280">Image unavailable</text>
</svg>
